<svg xmlns="http://www.w3.org/2000/svg" width="2708" height="1477" viewBox="0 0 2708 1477" version="1.1"><path d="M 1318.500 65.029 C 1248.346 69.175, 1190.176 81.208, 1123 105.472 C 1101.118 113.375, 1093.170 116.676, 1070 127.484 C 1053.991 134.952, 1040.714 141.685, 1029.500 148.023 C 972.752 180.095, 924.236 217.467, 877.476 265.129 C 825.933 317.665, 786.858 373.058, 754.472 439.500 C 728.787 492.193, 708.066 557.310, 698.148 616.500 C 680.777 720.171, 686.219 817.023, 715.144 919 C 735.294 990.040, 773.688 1067.806, 818.823 1129 C 829.644 1143.671, 852.539 1171.703, 864.559 1185 C 879.612 1201.651, 913.479 1235.036, 925.221 1244.800 C 930.018 1248.788, 936.543 1254.328, 939.721 1257.110 C 942.900 1259.893, 951.575 1266.697, 959 1272.231 C 966.425 1277.765, 974.075 1283.501, 976 1284.977 C 977.925 1286.453, 986.250 1292.161, 994.500 1297.661 C 1037.303 1326.196, 1085.014 1350.836, 1132 1368.672 C 1189.594 1390.534, 1250.563 1403.880, 1311.500 1407.964 C 1342.991 1410.074, 1399.757 1408.824, 1427 1405.421 C 1506.001 1395.551, 1577.064 1373.534, 1649 1336.640 C 1657.525 1332.268, 1667.650 1326.806, 1671.500 1324.503 C 1675.350 1322.200, 1683 1317.705, 1688.500 1314.514 C 1700.868 1307.340, 1731.931 1286.331, 1746 1275.626 C 1801.573 1233.342, 1852.248 1181.482, 1892.695 1125.500 C 1931.337 1072.017, 1962.156 1012.452, 1984.276 948.500 C 1997.416 910.509, 2009.603 858.295, 2014.501 819 C 2020.731 769.029, 2021.599 714.341, 2016.921 666.500 C 2013.960 636.205, 2005.373 585.649, 2000.021 567 C 1999.468 565.075, 1996.553 554.725, 1993.543 544 C 1969.046 456.726, 1925.064 374.174, 1864.350 301.515 C 1830.177 260.618, 1788.344 221.926, 1741.500 187.888 C 1691.669 151.680, 1630.827 120.304, 1571.500 100.218 C 1520.254 82.869, 1467.921 71.687, 1413.500 66.459 C 1394.291 64.614, 1339.487 63.789, 1318.500 65.029 M 1252 164.186 C 1243.272 165.437, 1195.923 173.365, 1178.548 176.486 C 1170.874 177.864, 1155.574 180.326, 1144.548 181.957 C 1133.521 183.588, 1122.133 185.840, 1119.240 186.961 C 1109.548 190.717, 1077.924 207.034, 1077.329 208.586 C 1076.983 209.487, 1077.825 211.252, 1079.370 212.864 C 1085.086 218.830, 1083.405 220.181, 1060.500 228.036 C 1042.306 234.276, 1043 233.970, 1043 235.762 C 1043 237.650, 1054.915 255.718, 1057.995 258.500 C 1059.988 260.300, 1062.125 260.563, 1079.355 261.128 C 1100.719 261.830, 1105.496 262.741, 1110.407 267.053 C 1116.159 272.103, 1122.991 286.971, 1130.069 309.842 C 1132.978 319.240, 1133.733 320.629, 1138.334 325.041 L 1143.398 329.896 1141.596 335.698 C 1140.606 338.889, 1138.524 343.750, 1136.971 346.500 C 1131.795 355.667, 1131.468 359.130, 1134.558 372.096 C 1137.841 385.875, 1144.956 407.012, 1148.935 414.808 C 1151.937 420.692, 1154.543 422.811, 1165.502 428.284 C 1172.236 431.647, 1183.039 436, 1184.652 436 C 1186.267 436, 1189.140 430.468, 1193.090 419.757 C 1196.385 410.818, 1206.993 388.568, 1209.321 385.710 C 1210.122 384.726, 1216.116 381.079, 1222.639 377.606 C 1229.163 374.132, 1238.775 368.255, 1244 364.546 C 1256.120 355.940, 1260.546 353.750, 1282.482 345.503 C 1292.372 341.784, 1301.442 338.101, 1302.638 337.317 C 1304.989 335.777, 1314.109 311.026, 1320.624 288.508 C 1324.018 276.776, 1324.400 274.107, 1327.994 237 C 1329.053 226.063, 1330.260 222.255, 1333.541 219.500 C 1334.788 218.453, 1350.088 206.960, 1360.704 199.096 C 1364.117 196.568, 1366.929 193.915, 1366.954 193.201 C 1367.027 191.138, 1358.983 188.045, 1353.500 188.029 C 1350.750 188.020, 1343.463 188.880, 1337.308 189.940 C 1319.867 192.943, 1311.560 193.590, 1312.209 191.895 C 1314.379 186.224, 1316.207 178.982, 1315.761 177.818 C 1315.465 177.048, 1308.556 174.334, 1300.362 171.771 C 1271.835 162.846, 1266.831 162.061, 1252 164.186 M 1041.256 181.977 C 1016.018 196.059, 988.577 214.606, 963.250 234.701 C 947.601 247.118, 946.545 248.820, 951.590 253.495 C 955.085 256.735, 961.260 257.780, 981.590 258.574 L 998.681 259.242 1002.763 254.371 C 1018.736 235.313, 1028.388 224.270, 1030.287 222.882 C 1031.504 221.991, 1037.428 218.680, 1043.450 215.522 C 1049.473 212.364, 1060.723 205.855, 1068.450 201.056 C 1076.178 196.257, 1086.438 190.195, 1091.250 187.584 C 1101.925 181.794, 1102.673 179.749, 1094.750 178.020 C 1086.074 176.126, 1068.927 174.039, 1062 174.034 C 1055.736 174.029, 1054.982 174.318, 1041.256 181.977 M 1535.712 207.236 C 1533.231 207.979, 1532.025 208.891, 1532.215 209.877 C 1532.597 211.860, 1539.419 215.296, 1550.328 219.002 C 1563.632 223.520, 1569.534 222.860, 1577.373 215.977 C 1581.881 212.019, 1581.928 209.029, 1577.500 207.805 C 1572.447 206.408, 1539.950 205.965, 1535.712 207.236 M 1504.760 214.502 C 1498.303 215.204, 1492.340 216.039, 1491.510 216.358 C 1488.401 217.551, 1490.038 221.685, 1497.137 230.569 C 1509.825 246.448, 1520.857 256.584, 1524.616 255.818 C 1526.444 255.445, 1542.896 230.303, 1542.958 227.787 C 1542.999 226.117, 1536.606 221.286, 1526.912 215.662 C 1521.828 212.712, 1521.426 212.691, 1504.760 214.502 M 927.316 265.316 C 923.661 268.769, 922.887 270.068, 923.442 271.816 C 924.671 275.690, 930.027 278.806, 937.521 280.007 C 945.484 281.283, 979.506 280.446, 984.733 278.846 C 987.796 277.908, 992 273.439, 992 271.121 C 992 270.533, 990.543 269.298, 988.762 268.377 C 985.929 266.912, 983.145 266.781, 966.512 267.332 C 945.661 268.023, 941.116 267.443, 937.084 263.580 C 935.602 262.161, 933.826 261, 933.137 261 C 932.448 261, 929.828 262.942, 927.316 265.316 M 1761.814 264.903 C 1757.617 267.049, 1752.747 269.861, 1750.993 271.153 C 1744.944 275.604, 1727 303.776, 1727 308.822 C 1727 313.946, 1736.212 320.445, 1747.689 323.419 C 1754.818 325.267, 1759 325.446, 1759 323.903 C 1759 323.300, 1757.200 320.762, 1755.001 318.264 C 1750.630 313.298, 1748.525 307.437, 1749.508 302.965 C 1751.299 294.808, 1764.499 280.296, 1776.520 273.267 C 1780.063 271.195, 1782.970 268.970, 1782.981 268.323 C 1783.017 266.120, 1775.685 261, 1772.495 261 C 1770.817 261, 1766.011 262.756, 1761.814 264.903 M 910.500 287.919 C 905.737 289.084, 903.135 290.838, 901.510 293.980 C 899.516 297.837, 899.482 306.864, 901.460 307.623 C 903.677 308.474, 918.765 300.001, 922.609 295.747 C 928.046 289.730, 927.535 289.094, 916 287.525 C 914.625 287.338, 912.150 287.515, 910.500 287.919 M 942.588 293.209 C 940.436 294.469, 937.128 297.750, 935.237 300.500 C 930.517 307.363, 930.955 312.473, 937.028 321.429 C 943.650 331.194, 944.453 331.442, 969.604 331.496 C 993.983 331.547, 991.088 330.574, 1007.619 344.279 C 1018.400 353.218, 1021.643 357.717, 1020.228 361.775 C 1018.721 366.098, 1010.119 378.876, 1007.607 380.522 C 1006.355 381.342, 1002.071 382.423, 998.087 382.923 C 989.606 383.988, 987 385.805, 987 390.655 L 987 394 997.550 394 C 1009.070 394, 1010.939 394.586, 1018.998 400.730 C 1024.586 404.990, 1039.917 412.571, 1046.205 414.184 C 1050.449 415.273, 1051.125 415.200, 1053.096 413.445 C 1055.447 411.353, 1060.998 400.485, 1060.999 397.974 C 1061 397.134, 1058.489 393.309, 1055.420 389.474 C 1052.351 385.638, 1049.444 381.777, 1048.961 380.893 C 1047.719 378.621, 1049.709 372, 1051.634 372 C 1052.480 372, 1056.027 374.741, 1059.515 378.090 C 1064.507 382.884, 1066.302 384.039, 1067.945 383.518 C 1070.452 382.722, 1079.021 374.198, 1080.964 370.567 C 1082.248 368.168, 1082.141 367.756, 1079.509 365.009 C 1076.581 361.954, 1066.750 355.105, 1059.241 350.891 C 1054.666 348.323, 1053.493 345.910, 1052.313 336.633 L 1051.694 331.765 1030.027 317.383 L 1008.360 303 998.270 303 L 988.180 303 983.340 299.196 C 976.152 293.545, 976.176 293.555, 967 292.812 C 962.325 292.434, 955.800 291.853, 952.500 291.521 C 947.380 291.006, 945.926 291.253, 942.588 293.209 M 1819.014 315.971 C 1817.356 319.256, 1816 323.056, 1816 324.416 C 1816 325.777, 1817.519 329.952, 1819.375 333.695 C 1823.190 341.386, 1825.468 347.865, 1824.647 348.687 C 1824.343 348.991, 1818.785 346.862, 1812.297 343.955 C 1791.967 334.849, 1778 330.761, 1778 333.917 C 1778 334.421, 1778.916 336.971, 1780.035 339.582 C 1781.446 342.874, 1781.751 344.649, 1781.029 345.371 C 1780.362 346.038, 1773.233 346.324, 1761.243 346.167 C 1736.116 345.838, 1732.603 346.794, 1712.447 359.449 C 1707.537 362.532, 1702.840 364.928, 1702.010 364.774 C 1701.117 364.608, 1699.468 361.429, 1697.974 356.997 C 1695.547 349.791, 1695.283 349.442, 1691.179 348.015 C 1685.652 346.093, 1684.693 347.321, 1685.719 355 C 1686.124 358.025, 1686.465 362.491, 1686.477 364.926 C 1686.500 369.292, 1686.420 369.397, 1680.500 372.796 C 1671.658 377.872, 1662.546 383.736, 1653.300 390.301 C 1646.596 395.061, 1644.755 395.939, 1643.213 395.114 C 1639.794 393.284, 1629.335 381.326, 1627.258 376.872 C 1624.909 371.835, 1623.651 366, 1624.913 366 C 1625.388 366, 1629.633 367.118, 1634.347 368.484 C 1645.284 371.653, 1656.100 373.443, 1659.366 372.623 C 1662.088 371.940, 1668 364.303, 1668 361.471 C 1668 357.220, 1659.204 352.483, 1619 335.086 C 1612.675 332.349, 1606.600 329.261, 1605.500 328.222 C 1601.790 324.721, 1589.789 320.743, 1584.384 321.223 C 1576.640 321.910, 1548.369 330.681, 1538.468 335.467 L 1529.435 339.833 1517.501 357.166 C 1494.285 390.887, 1492.603 392.788, 1476.047 404.009 C 1460.185 414.760, 1460.483 414.358, 1460.578 424.863 C 1460.622 429.614, 1461.468 436.805, 1462.459 440.844 C 1463.989 447.076, 1464.734 448.477, 1467.381 450.091 C 1471.969 452.888, 1473.818 452.519, 1483.074 446.956 C 1494.884 439.858, 1494.619 439.637, 1504.992 465.250 C 1507.944 472.540, 1509.853 475.999, 1510.923 475.997 C 1511.790 475.995, 1515.118 474.758, 1518.317 473.247 L 1524.134 470.500 1528.598 459.090 C 1531.054 452.814, 1534.398 445.863, 1536.031 443.643 C 1539.870 438.423, 1539.773 435.621, 1535.526 428.954 C 1531.813 423.126, 1530.908 416.985, 1533.127 412.684 C 1533.747 411.483, 1538.021 406.622, 1542.624 401.882 C 1547.977 396.370, 1551.879 391.325, 1553.451 387.882 C 1558.083 377.741, 1561.232 375.527, 1568.943 376.989 C 1580.071 379.100, 1580.549 381.504, 1571.697 390.847 C 1568.230 394.506, 1563.440 399.890, 1561.053 402.811 L 1556.712 408.122 1557.290 416.324 C 1558.058 427.199, 1559.125 429.736, 1563.740 431.665 C 1567.782 433.354, 1570.842 433.219, 1588 430.595 C 1596.865 429.239, 1597.667 429.260, 1600 430.921 C 1606.498 435.546, 1600.457 440.300, 1586.720 441.372 C 1578.780 441.992, 1572.958 444.080, 1573.053 446.276 C 1573.082 446.949, 1573.717 450.875, 1574.465 455 C 1575.213 459.125, 1575.449 462.893, 1574.988 463.374 C 1574.512 463.872, 1572.761 463.764, 1570.927 463.124 C 1566.602 461.617, 1560.494 461.700, 1559.179 463.285 C 1558.592 463.992, 1557.332 468.539, 1556.379 473.390 C 1555.426 478.242, 1554.018 482.839, 1553.252 483.606 C 1552.385 484.472, 1549.698 485, 1546.150 485 C 1543.011 485, 1535.280 486.342, 1528.971 487.983 C 1515.831 491.399, 1512.688 491.591, 1504.550 489.471 C 1491.271 486.012, 1488.468 482.991, 1491.257 475.139 C 1492.810 470.766, 1492.808 470.138, 1491.217 465.481 C 1490.281 462.741, 1489.414 460.327, 1489.290 460.115 C 1488.732 459.165, 1482.739 462.516, 1480.966 464.770 C 1478.651 467.713, 1478.364 474.816, 1480.164 484.585 C 1481.621 492.494, 1481.010 493.348, 1472.733 494.963 L 1466.500 496.179 1449.877 512.998 C 1433.266 529.805, 1431.009 531.604, 1423.500 534.019 C 1421.300 534.727, 1418.950 536.084, 1418.277 537.034 C 1417.427 538.235, 1414.989 538.969, 1410.277 539.442 C 1406.550 539.816, 1402.713 540.350, 1401.750 540.629 C 1398.294 541.628, 1399.910 544.933, 1406.212 549.751 C 1417.467 558.356, 1420 562.346, 1420 571.473 C 1420 578.752, 1418.390 582.864, 1415.229 583.657 C 1413.815 584.012, 1404.624 584.024, 1394.805 583.684 C 1372 582.893, 1372 582.893, 1372 592.247 C 1372 596.057, 1371.306 604.807, 1370.457 611.692 C 1368.123 630.630, 1369.667 633.423, 1384.484 637.060 C 1392.574 639.045, 1394.343 639.157, 1402.257 638.182 C 1408.445 637.420, 1412.544 636.285, 1416.111 634.343 C 1421.414 631.457, 1423.046 629.050, 1427.870 617 C 1429.545 612.818, 1432.575 608.914, 1440.515 600.708 C 1450.877 590, 1455.323 586.986, 1460.718 587.015 C 1462.248 587.023, 1467.670 585.154, 1472.766 582.862 C 1483.766 577.913, 1484.801 578.109, 1490.831 586.271 C 1494.702 591.511, 1500.904 597.194, 1508 602.001 C 1517.962 608.751, 1522.068 613.835, 1523.951 621.750 C 1525.913 630.001, 1528.625 628.557, 1531.365 617.803 C 1532.605 612.933, 1532.972 612.474, 1535.858 612.187 C 1541.606 611.613, 1539.766 608.809, 1528.781 601.401 C 1523.160 597.612, 1518.016 593.833, 1517.349 593.005 C 1516.683 592.177, 1513.693 588.575, 1510.707 585 C 1502.919 575.678, 1502.349 574.352, 1504.748 571.125 C 1507.932 566.844, 1509.994 567.334, 1519.616 574.657 C 1532.045 584.117, 1545.850 595.846, 1546.893 597.830 C 1547.375 598.749, 1548.080 601.801, 1548.460 604.612 C 1548.941 608.177, 1550.624 612.112, 1554.020 617.612 C 1556.699 621.951, 1560.328 628.087, 1562.084 631.250 C 1565.906 638.129, 1567.825 638.525, 1572.632 633.429 C 1576.349 629.487, 1576.657 627.863, 1574.632 622.872 C 1573.880 621.017, 1572.974 617.583, 1572.619 615.240 C 1571.999 611.152, 1572.105 610.923, 1575.237 609.550 C 1577.031 608.763, 1582.550 606.855, 1587.500 605.310 C 1596.314 602.558, 1596.512 602.428, 1597.068 599 C 1597.698 595.116, 1607.044 571.590, 1610.253 565.809 C 1613.053 560.765, 1616.394 559.579, 1625.474 560.401 C 1633.335 561.114, 1640.062 559.837, 1655.825 554.640 C 1661.704 552.701, 1663.252 552.492, 1663.669 553.581 C 1664.317 555.269, 1661.220 563.572, 1659.370 565.108 C 1655.771 568.095, 1658.354 571.662, 1672 582.556 C 1678.775 587.964, 1686 595.450, 1686 597.061 C 1686 597.957, 1685.052 599.547, 1683.893 600.595 C 1680.790 603.402, 1664.923 603.144, 1651.091 600.062 C 1643.125 598.287, 1639.104 597.889, 1633.959 598.367 C 1626.262 599.083, 1615.659 602.136, 1608.772 605.620 C 1606.171 606.935, 1601.896 608.474, 1599.272 609.038 C 1591.620 610.684, 1591.591 610.729, 1593.014 618.691 C 1594.681 628.020, 1598.684 635.908, 1603.054 638.476 C 1606.219 640.335, 1608.215 640.500, 1627.500 640.498 C 1640.371 640.497, 1648.784 640.884, 1649.235 641.498 C 1651.497 644.583, 1648.300 662.741, 1643.640 673.280 C 1639.876 681.791, 1639.705 681.843, 1616.500 681.516 C 1595.042 681.215, 1594.032 681.035, 1570.694 673.364 C 1565.273 671.582, 1561.849 670.993, 1559.487 671.436 C 1555.671 672.152, 1552 676.098, 1552 679.486 C 1552 682.881, 1550.029 687.775, 1548.412 688.395 C 1547.616 688.701, 1545.510 688.314, 1543.732 687.536 C 1539.380 685.630, 1503.764 669.496, 1497.516 666.599 L 1492.532 664.288 1492.481 652.710 C 1492.415 638.180, 1491.678 637, 1482.663 637 C 1479.348 637, 1472.780 637.441, 1468.068 637.979 C 1463.355 638.517, 1455.125 639.420, 1449.778 639.985 C 1442.944 640.707, 1436.707 642.208, 1428.778 645.038 C 1416.781 649.320, 1403.854 651.360, 1395.189 650.338 L 1390.500 649.786 1380 660.404 C 1369.675 670.845, 1364.178 679.175, 1364.049 684.572 C 1364.022 685.711, 1363.270 688.786, 1362.378 691.405 C 1361.013 695.411, 1359.616 697.009, 1353.574 701.477 C 1343.045 709.264, 1339.511 713.752, 1327.163 735.023 C 1318.365 750.179, 1318.354 750.225, 1320.479 763.776 C 1322.631 777.495, 1322.143 785.500, 1318.517 796 C 1315.956 803.417, 1315.945 803.574, 1317.538 810.115 C 1318.876 815.608, 1319.912 817.474, 1323.645 821.115 C 1328.868 826.211, 1336.502 836.338, 1340.517 843.500 C 1342.058 846.250, 1344.935 850.230, 1346.910 852.343 C 1351.067 856.794, 1362.819 866.528, 1368.865 870.529 L 1373.028 873.284 1392.302 871.198 C 1406.325 869.680, 1416.087 867.968, 1428.130 864.915 C 1448.066 859.861, 1449.353 859.966, 1458.414 867.393 C 1464.296 872.214, 1465.600 872.822, 1472.416 873.922 C 1478.287 874.869, 1480.596 875.755, 1482.966 877.968 C 1487.042 881.776, 1487.046 886.696, 1482.985 905.550 C 1482.269 908.877, 1481.977 912.773, 1482.337 914.208 C 1482.697 915.642, 1485.743 920.527, 1489.106 925.062 C 1498.046 937.119, 1499.388 940.191, 1504.036 959.229 C 1509.667 982.295, 1509.653 984.878, 1503.833 997.500 C 1498.537 1008.984, 1497 1014.602, 1497 1022.473 C 1497 1028.077, 1498.356 1032.149, 1505.144 1046.922 C 1509.880 1057.229, 1511.814 1063.948, 1513.894 1077.313 C 1515.939 1090.456, 1516.107 1090.930, 1525.823 1111 C 1529.151 1117.875, 1532.363 1125.525, 1532.960 1128 C 1533.557 1130.475, 1534.598 1134.932, 1535.273 1137.904 C 1536.154 1141.786, 1537.277 1143.886, 1539.259 1145.357 C 1541.871 1147.295, 1542.459 1147.338, 1550.259 1146.153 C 1554.792 1145.464, 1564.125 1144.244, 1571 1143.440 C 1577.875 1142.637, 1585.371 1141.288, 1587.657 1140.443 C 1599.092 1136.214, 1624.501 1105.106, 1627.034 1092.235 C 1628.419 1085.193, 1628.850 1084.621, 1637.242 1078.681 C 1641.548 1075.634, 1644.215 1072.991, 1644.623 1071.367 C 1644.974 1069.968, 1644.919 1064.476, 1644.501 1059.162 C 1643.103 1041.405, 1643.680 1039.670, 1653.287 1032.738 C 1681.031 1012.719, 1680.397 1013.638, 1679.668 994.500 C 1679.379 986.906, 1677.866 973.678, 1676.029 962.688 C 1673.113 945.235, 1672.988 943.529, 1674.297 939.062 C 1676.889 930.220, 1686.300 917.918, 1707.353 895.849 C 1729.654 872.472, 1732.515 868.898, 1737.653 858 C 1749.084 833.753, 1752.270 824.870, 1750.256 822.856 C 1749.571 822.171, 1745.718 822.833, 1738.371 824.900 C 1723.702 829.027, 1708.515 832.194, 1705.228 831.813 C 1703.065 831.562, 1701.333 829.677, 1696.469 822.279 C 1693.135 817.208, 1687.728 810.047, 1684.453 806.367 C 1674.266 794.917, 1670.202 788.863, 1665.412 778 C 1662.865 772.225, 1657.052 759.175, 1652.494 749 C 1647.936 738.825, 1641.660 724.650, 1638.547 717.500 C 1635.434 710.350, 1632.431 703.669, 1631.874 702.653 C 1630.495 700.137, 1631.594 699.323, 1633.744 701.267 C 1634.710 702.141, 1637.750 703.604, 1640.500 704.518 C 1643.250 705.432, 1646.318 707.152, 1647.318 708.340 C 1651.458 713.256, 1658.252 724.408, 1666 739 C 1670.527 747.525, 1678.169 761.025, 1682.983 769 C 1694.510 788.093, 1695.655 790.473, 1697.446 799.063 C 1699.185 807.402, 1702.997 814, 1706.076 814 C 1710.144 814, 1718.847 810.548, 1737.671 801.469 C 1761.485 789.983, 1777.979 780.139, 1784.500 773.520 C 1787.250 770.729, 1792.144 763.809, 1795.376 758.142 C 1802.472 745.702, 1802.455 745.628, 1790.495 736.939 C 1786.065 733.720, 1781.428 729.717, 1780.190 728.043 C 1777.459 724.350, 1776.061 724.242, 1773.010 727.490 C 1769.994 730.700, 1760.663 734.186, 1756.117 733.800 C 1753.112 733.545, 1751.693 732.445, 1746.706 726.500 C 1739.208 717.563, 1733.835 709.412, 1729.336 700.152 C 1725.278 691.799, 1725.657 690.417, 1732.303 689.338 C 1737.277 688.531, 1741.322 690.415, 1744.517 695.025 C 1748.468 700.726, 1758.413 709.857, 1762.558 711.589 C 1766.515 713.242, 1772.329 713.564, 1778.340 712.463 C 1781.879 711.815, 1782.506 712.074, 1786.340 715.763 C 1788.628 717.965, 1791.400 720.218, 1792.500 720.770 C 1797.008 723.032, 1811.390 725.145, 1825.500 725.619 C 1833.750 725.896, 1841.469 726.317, 1842.652 726.556 C 1843.836 726.794, 1849.461 730.905, 1855.152 735.690 C 1864.317 743.396, 1865.464 744.715, 1865.182 747.227 C 1864.939 749.388, 1865.715 750.915, 1868.440 753.640 C 1872.166 757.366, 1873.114 757.503, 1881.141 755.476 C 1883.489 754.883, 1883.895 755.180, 1884.804 758.154 C 1885.367 759.994, 1886.118 765.082, 1886.474 769.461 C 1886.830 773.839, 1887.715 779.914, 1888.441 782.961 C 1890.003 789.519, 1899.921 814.573, 1906.269 828 C 1908.740 833.225, 1911.690 839.638, 1912.824 842.250 C 1915.611 848.665, 1917.652 848.499, 1925.132 841.250 C 1932.237 834.365, 1933.155 831.621, 1935.683 809.727 L 1937.388 794.954 1943.990 788.727 C 1947.621 785.302, 1957.843 775.849, 1966.705 767.719 L 1982.818 752.939 1983.552 743.219 C 1985.660 715.303, 1980.729 653.880, 1973.017 612 C 1955.769 518.330, 1916.595 428.601, 1860.161 353.500 C 1842.656 330.205, 1825.567 310, 1823.369 310 C 1822.632 310, 1820.672 312.687, 1819.014 315.971 M 896.743 315.358 C 892.323 317.877, 889.382 324.159, 890.351 329.007 C 890.686 330.681, 892.769 334.715, 894.980 337.971 C 897.191 341.226, 899 344.267, 899 344.726 C 899 345.186, 896.315 348.220, 893.032 351.468 L 887.065 357.373 872.782 356.173 C 864.927 355.513, 855.800 354.996, 852.500 355.023 C 846.572 355.072, 846.467 355.124, 843.738 359.287 C 842.219 361.604, 837.543 368.450, 833.345 374.500 C 809.397 409.020, 788.068 448.890, 769.953 493 C 763.104 509.674, 754.990 533.001, 750.124 550 C 738.192 591.683, 731.730 626.625, 726.485 677.828 L 724.915 693.155 728.325 699.328 C 730.201 702.722, 731.520 706.101, 731.256 706.837 C 730.992 707.572, 732.101 709.597, 733.720 711.337 C 735.339 713.076, 739.290 718.507, 742.499 723.405 C 749.357 733.873, 753.666 739, 755.604 739 C 758.538 739, 757.691 736.739, 744.739 710 C 735.427 690.774, 734 687.370, 734 684.378 C 734 681.815, 735.826 681.301, 738.964 682.980 C 739.971 683.520, 745.229 690.549, 750.648 698.601 C 756.066 706.653, 763.522 716.980, 767.215 721.549 C 773.596 729.444, 782.381 741.961, 784.856 746.684 C 785.485 747.886, 786 751.841, 786 755.474 C 786 766.057, 788.475 769.650, 800 775.802 C 802.475 777.124, 808.550 780.382, 813.500 783.044 C 818.450 785.706, 826.305 789.282, 830.956 790.992 C 838.622 793.811, 840.116 794.042, 846.956 793.463 L 854.500 792.824 861 797.062 C 870.444 803.220, 874.362 805.226, 885.247 809.476 C 897.117 814.112, 900.707 817.173, 906.304 827.432 C 908.684 831.795, 911.489 835.845, 912.537 836.432 C 913.585 837.020, 917.755 839.676, 921.803 842.335 C 925.850 844.995, 931.038 848.022, 933.331 849.063 C 937.613 851.007, 942 851.597, 942 850.229 C 942 849.805, 943.994 848.369, 946.432 847.037 C 952.365 843.796, 954.846 844.942, 958.625 852.667 C 961.062 857.648, 961.513 859.901, 961.786 868.487 L 962.106 878.500 957.803 884.062 C 943.592 902.433, 941.046 905.981, 940.535 908.125 C 940.223 909.431, 939.577 917.025, 939.099 925 C 938.104 941.609, 937.376 939.149, 948.361 956.321 C 952.520 962.823, 957.028 970.473, 958.380 973.321 C 972.980 1004.082, 972.440 1003.182, 979.311 1008.198 C 982.851 1010.782, 990.191 1015.890, 995.623 1019.550 C 1010.071 1029.285, 1009.436 1027.901, 1009.840 1050.500 C 1010.336 1078.213, 1008.210 1134.731, 1005.947 1154 C 1003.632 1173.707, 1003.532 1183.542, 1005.441 1203.500 C 1006.230 1211.750, 1007.432 1227.836, 1008.114 1239.247 L 1009.352 1259.994 1012.559 1263.495 C 1015.864 1267.103, 1056.354 1293, 1058.690 1293 C 1060.592 1293, 1060.310 1291.451, 1057.636 1287.216 C 1056.336 1285.157, 1054.037 1281.034, 1052.527 1278.053 C 1048.948 1270.990, 1049.435 1266.431, 1054.884 1255.989 C 1057.148 1251.651, 1059 1247.448, 1059 1246.650 C 1059 1245.852, 1057.879 1242.791, 1056.510 1239.849 C 1055.140 1236.907, 1054.015 1233.357, 1054.010 1231.961 C 1053.999 1229.182, 1063.567 1204.066, 1070.372 1189.011 C 1075.109 1178.531, 1073.903 1179.464, 1088.500 1174.980 C 1096.079 1172.652, 1101.491 1169.179, 1102.502 1165.994 C 1102.889 1164.775, 1102.141 1161.878, 1100.599 1158.617 C 1097.804 1152.710, 1095.313 1144.353, 1096.110 1143.557 C 1096.389 1143.278, 1101.002 1143.749, 1106.361 1144.604 C 1113.831 1145.796, 1116.433 1145.886, 1117.512 1144.990 C 1119.999 1142.926, 1142.525 1108.727, 1145.828 1102 C 1147.583 1098.425, 1149.523 1092.575, 1150.139 1089 C 1152.248 1076.760, 1154.267 1074.852, 1175.215 1065.298 C 1191.972 1057.656, 1194.421 1056.060, 1196.907 1051.166 C 1200.918 1043.269, 1205.284 1023.690, 1206.879 1006.447 C 1207.390 1000.917, 1208.480 994.788, 1209.300 992.825 C 1210.120 990.863, 1215.082 982.888, 1220.327 975.102 C 1231.134 959.060, 1232.525 954.623, 1229.868 944.682 L 1228.486 939.515 1213.812 930.918 C 1201.597 923.763, 1197.407 921.861, 1188.819 919.572 C 1178.615 916.853, 1155.603 908.453, 1142.982 902.839 L 1136.463 899.939 1134.306 893.092 C 1131.718 884.880, 1125.663 872.348, 1122.813 869.306 C 1119.724 866.010, 1115.309 864.245, 1101.620 860.835 C 1087.836 857.401, 1090.508 859.104, 1067.671 839.196 C 1062.816 834.963, 1057.866 831.207, 1056.671 830.850 C 1055.477 830.492, 1051.524 830.155, 1047.886 830.100 C 1038.971 829.965, 1033.232 828.790, 1015.114 823.390 C 1005.710 820.587, 998.711 819.016, 997.114 819.348 C 995.676 819.647, 990.490 822.047, 985.589 824.682 C 976.924 829.341, 973.254 832.961, 967.454 842.567 C 966.493 844.160, 966.061 844.069, 962.069 841.427 C 957.532 838.425, 953.096 837.965, 939.462 839.086 C 933.515 839.575, 930.102 837.373, 925.381 830.001 C 922.211 825.051, 921.980 822.430, 923.355 807 C 924.034 799.369, 923.910 798.248, 922.138 796.033 C 920.266 793.694, 919.456 793.533, 906.566 792.933 C 899.087 792.586, 892.674 792.008, 892.315 791.649 C 891.957 791.290, 893.534 785.035, 895.819 777.748 C 904.068 751.456, 903.993 750.721, 893.165 751.683 C 889.499 752.009, 885.708 752.681, 884.741 753.177 C 883.774 753.674, 881.186 757.651, 878.992 762.016 C 876.797 766.382, 873.988 770.615, 872.751 771.424 C 871.458 772.269, 866.608 773.188, 861.359 773.583 L 852.218 774.271 847.843 769.885 C 841.424 763.450, 838.398 757.605, 836.916 748.783 C 835.796 742.106, 835.842 739.814, 837.264 731.783 C 838.167 726.677, 839.194 720.267, 839.546 717.537 C 840.760 708.125, 842.614 705.212, 850.786 699.877 C 859.027 694.497, 857.840 694.690, 880.859 694.997 C 889.373 695.110, 890.572 694.887, 894.143 692.524 C 900.852 688.084, 909.746 687.566, 920.700 690.979 C 926.820 692.885, 929.793 696.488, 931.072 703.552 C 932.968 714.013, 939.526 725, 943.875 725 C 946.593 725, 948.315 719.416, 947.487 713.284 C 947.132 710.653, 945.748 704.028, 944.411 698.562 C 941.806 687.915, 941.926 684.130, 945.060 678 C 946.924 674.353, 956.699 664.491, 968.229 654.625 C 973.610 650.022, 975.169 648.028, 976.005 644.684 C 980.965 624.858, 990.717 610.206, 1002.738 604.520 C 1009.397 601.370, 1009.964 600.708, 1009.985 596.066 C 1010.004 591.730, 1015.361 586.353, 1029.206 576.775 C 1043.615 566.807, 1046.538 566.723, 1041.829 576.415 C 1040.025 580.128, 1039.877 581.147, 1040.952 582.442 C 1041.663 583.299, 1043.383 584, 1044.774 584 C 1047.694 584, 1073 569.234, 1073 567.531 C 1073 566.905, 1069.963 565.409, 1066.250 564.206 C 1055.447 560.704, 1053.331 558.996, 1051.485 552.288 C 1048.109 540.022, 1047.814 539.532, 1043.594 539.182 C 1039.489 538.843, 1033.892 541.763, 1021.598 550.659 C 1012.463 557.269, 1012.164 554.841, 1020.794 544.144 C 1025.958 537.742, 1034.616 531.334, 1039.898 530.003 C 1042.429 529.366, 1051.874 528.469, 1060.888 528.010 L 1077.275 527.176 1090.388 520.452 C 1097.599 516.754, 1104.051 513.294, 1104.724 512.763 C 1106.444 511.408, 1107.349 505.676, 1106.532 501.319 C 1105.794 497.383, 1100.056 491.206, 1092.500 486.213 C 1080.112 478.027, 1075.269 472.266, 1072.458 462.369 C 1070.176 454.338, 1060.975 437, 1058.994 437 C 1058.134 437, 1056.596 438.462, 1055.576 440.250 C 1050.270 449.547, 1043.220 453.272, 1036.229 450.475 C 1031.290 448.499, 1028.157 443.184, 1026.966 434.761 C 1025.983 427.803, 1026.394 428.245, 1012.700 419.426 L 1003.900 413.759 994.414 413.630 C 987.429 413.534, 984.709 413.855, 984.096 414.847 C 981.069 419.738, 979.627 452.191, 981.951 463.110 C 983.693 471.294, 982.751 474.111, 976.227 480.236 C 973.729 482.581, 970.631 485.492, 969.342 486.705 C 967.199 488.722, 966.990 489.782, 966.882 499.205 C 966.733 512.116, 966.141 514.811, 962.923 517.211 C 960.436 519.065, 960.216 519.071, 956.651 517.370 C 951.361 514.848, 948.289 508.075, 947.073 496.253 C 946.550 491.168, 945.865 486.590, 945.550 486.081 C 945.236 485.572, 942.067 484.187, 938.508 483.003 C 928.950 479.822, 892.508 460.919, 888.322 456.971 C 884.462 453.330, 881.058 446.936, 881.022 443.261 C 881.010 442.029, 882.148 438.153, 883.552 434.647 C 887.707 424.267, 905.200 405.629, 919.077 396.796 C 922.144 394.844, 927.047 390.716, 929.972 387.623 C 932.897 384.530, 935.727 382, 936.260 382 C 937.174 382, 937.063 383.922, 935.320 398.250 L 934.742 403 939.741 403 C 942.490 403, 947.557 402.100, 951 401 C 954.443 399.900, 959.227 399, 961.630 399 C 965.266 399, 966 398.679, 966 397.089 C 966 394.363, 961.057 390.563, 951.651 386.059 C 937.114 379.097, 935.902 375.779, 947.444 374.543 C 954.843 373.751, 961.893 369.869, 964.893 364.936 C 966.962 361.533, 968.573 348.887, 967.538 344.173 C 967.075 342.065, 965.735 340.723, 962.461 339.087 C 954.786 335.254, 953.675 335.944, 946.622 348.918 C 943.209 355.197, 939.680 360.800, 938.780 361.367 C 936.766 362.638, 934.553 360.256, 929.432 351.303 C 927.153 347.319, 924.200 343.895, 921.161 341.711 C 917.410 339.016, 915.884 336.993, 913.769 331.908 C 912.304 328.383, 910.608 323.567, 910.002 321.204 C 909.200 318.083, 908.024 316.375, 905.699 314.958 C 901.858 312.616, 901.528 312.631, 896.743 315.358 M 1345 370.676 C 1343.625 370.898, 1338.619 371.962, 1333.876 373.040 C 1322.863 375.543, 1316.964 375.532, 1312 373 C 1306.988 370.443, 1305.476 370.483, 1303.557 373.223 C 1301.363 376.355, 1301.647 379.470, 1304.857 387.500 C 1307.361 393.763, 1308.121 394.728, 1312.078 396.663 C 1317.983 399.551, 1327.103 401.407, 1331.712 400.659 C 1336.273 399.919, 1353.640 391.662, 1356.750 388.755 C 1357.987 387.598, 1359 385.812, 1359 384.786 C 1359 380.333, 1351.509 369.778, 1348.604 370.136 C 1347.997 370.211, 1346.375 370.454, 1345 370.676 M 1401.426 446.417 C 1397.214 448.251, 1394 455.805, 1394 463.870 C 1394 471.446, 1394.919 473.808, 1400.561 480.734 C 1403.068 483.812, 1405.800 487.646, 1406.632 489.256 C 1408.065 492.026, 1408.001 492.391, 1405.437 496.091 C 1403.947 498.241, 1402.360 500, 1401.911 500 C 1401.037 500, 1399.015 506.390, 1399.006 509.180 C 1399.002 510.143, 1399.928 510.997, 1401.172 511.180 C 1404.611 511.687, 1404.345 513.327, 1400.026 518.233 C 1396.256 522.517, 1394.851 526, 1396.895 526 C 1397.387 526, 1400.649 525.117, 1404.145 524.038 C 1407.640 522.959, 1413.875 521.369, 1418 520.504 C 1432.606 517.443, 1432.972 517.275, 1435.053 512.691 C 1437.866 506.496, 1437.589 502.812, 1434.118 500.246 C 1432.533 499.074, 1429.533 495.052, 1427.452 491.307 C 1425.371 487.563, 1421.302 480.754, 1418.410 476.175 L 1413.153 467.849 1414.652 462.800 C 1415.477 460.023, 1415.780 457.433, 1415.326 457.044 C 1414.872 456.655, 1412.598 455.796, 1410.274 455.136 L 1406.047 453.934 1406.660 449.467 C 1407.344 444.473, 1406.722 444.111, 1401.426 446.417 M 1374.147 484.250 C 1367.783 489.739, 1366.182 492.461, 1367.798 495.048 C 1369.438 497.674, 1369.308 503.018, 1367.500 507.346 C 1366.675 509.320, 1366 511.400, 1366 511.968 C 1366 513.811, 1370.338 513.076, 1378.254 509.892 C 1385.468 506.989, 1386.146 506.459, 1388.004 502.259 C 1389.473 498.938, 1390 495.567, 1390 489.498 L 1390 481.250 1386.875 480.625 C 1380.984 479.447, 1379.090 479.986, 1374.147 484.250 M 1097.591 525.876 C 1092.458 532.868, 1084.711 547.804, 1085.351 549.472 C 1085.650 550.252, 1087.606 551.172, 1089.697 551.517 C 1091.789 551.862, 1099.084 553.237, 1105.910 554.572 C 1122.578 557.833, 1122.001 557.898, 1121.994 552.750 C 1121.981 542.652, 1118.255 536.726, 1111.166 535.528 C 1108.880 535.142, 1106.712 534.343, 1106.347 533.752 C 1105.982 533.162, 1105.778 530.051, 1105.894 526.839 C 1106.096 521.241, 1106.003 521, 1103.638 521 C 1101.841 521, 1100.197 522.326, 1097.591 525.876 M 927.750 741.658 C 922.561 743.811, 922.813 745.998, 928.250 746.009 C 933.411 746.020, 949.916 751.599, 955.711 755.293 C 958.027 756.769, 960.925 759.332, 962.149 760.988 C 964.234 763.808, 964.794 763.999, 970.938 763.986 C 979.219 763.969, 982.185 763.200, 981.795 761.172 C 981.467 759.473, 955.835 745.263, 947.212 742.001 C 940.945 739.629, 932.980 739.489, 927.750 741.658 M 992.750 764.561 C 992.337 764.986, 992 766.845, 992 768.692 C 992 771.623, 991.619 772.126, 989 772.650 C 985.082 773.434, 985.154 775.581, 989.125 776.375 C 997.951 778.140, 1019.239 775.716, 1019.784 772.883 C 1020.455 769.398, 995.511 761.720, 992.750 764.561 M 1731.533 995.762 C 1724.750 1005.575, 1718.990 1011.064, 1712.321 1014.068 C 1703.504 1018.041, 1702.603 1019.823, 1702.546 1033.385 C 1702.502 1044.028, 1702.356 1044.774, 1699.123 1050.953 C 1695.873 1057.163, 1695.771 1057.698, 1696.396 1065.198 C 1697.486 1078.264, 1700.424 1083, 1707.440 1083 C 1712.995 1083, 1718.057 1080.094, 1720.679 1075.401 C 1721.877 1073.255, 1727.390 1058.015, 1732.929 1041.534 C 1744.284 1007.748, 1744.824 1004.460, 1740.536 995.250 C 1739.192 992.362, 1737.509 990.005, 1736.796 990.012 C 1736.083 990.018, 1733.715 992.606, 1731.533 995.762" stroke="none" fill="#21466f" fill-rule="evenodd"/><path d="M 1252 164.186 C 1243.272 165.437, 1195.923 173.365, 1178.548 176.486 C 1170.874 177.864, 1155.574 180.326, 1144.548 181.957 C 1133.477 183.595, 1122.067 185.865, 1119.067 187.027 C 1111.404 189.995, 1076 207.948, 1076 208.866 C 1076 209.284, 1077.350 210.919, 1079 212.500 C 1085.390 218.622, 1083.622 220.107, 1060.500 228.036 C 1042.306 234.276, 1043 233.970, 1043 235.762 C 1043 237.650, 1054.915 255.718, 1057.995 258.500 C 1059.988 260.300, 1062.125 260.563, 1079.355 261.128 C 1100.719 261.830, 1105.496 262.741, 1110.407 267.053 C 1116.159 272.103, 1122.991 286.971, 1130.069 309.842 C 1132.978 319.240, 1133.733 320.629, 1138.334 325.041 L 1143.398 329.896 1141.596 335.698 C 1140.606 338.889, 1138.524 343.750, 1136.971 346.500 C 1131.795 355.667, 1131.468 359.130, 1134.558 372.096 C 1137.841 385.875, 1144.956 407.012, 1148.935 414.808 C 1151.937 420.692, 1154.543 422.811, 1165.502 428.284 C 1172.236 431.647, 1183.039 436, 1184.652 436 C 1186.267 436, 1189.140 430.468, 1193.090 419.757 C 1196.385 410.818, 1206.993 388.568, 1209.321 385.710 C 1210.122 384.726, 1216.116 381.079, 1222.639 377.606 C 1229.163 374.132, 1238.775 368.255, 1244 364.546 C 1256.120 355.940, 1260.546 353.750, 1282.482 345.503 C 1292.372 341.784, 1301.442 338.101, 1302.638 337.317 C 1304.989 335.777, 1314.109 311.026, 1320.624 288.508 C 1324.018 276.776, 1324.400 274.107, 1327.994 237 C 1329.053 226.063, 1330.260 222.255, 1333.541 219.500 C 1334.788 218.453, 1350.088 206.960, 1360.704 199.096 C 1364.117 196.568, 1366.929 193.915, 1366.954 193.201 C 1367.027 191.138, 1358.983 188.045, 1353.500 188.029 C 1350.750 188.020, 1343.550 188.864, 1337.500 189.904 C 1331.450 190.944, 1323.463 192.118, 1319.750 192.514 C 1313.326 193.198, 1313 193.131, 1313 191.127 C 1313 189.969, 1313.895 186.665, 1314.989 183.786 C 1316.567 179.633, 1316.722 178.304, 1315.739 177.362 C 1315.058 176.708, 1307.975 174.135, 1300 171.643 C 1271.889 162.860, 1266.789 162.067, 1252 164.186 M 1041.256 181.977 C 1016.398 195.847, 988.915 214.385, 963.928 234.138 C 947.111 247.432, 947.452 247.040, 949.393 250.793 C 952.152 256.129, 956.384 257.229, 978.398 258.336 L 998.297 259.336 1001.898 255.315 C 1003.879 253.103, 1010.675 245.130, 1017 237.596 C 1029.296 222.950, 1029.317 222.933, 1044.500 214.971 C 1050 212.087, 1060.125 206.217, 1067 201.926 C 1073.875 197.635, 1084.225 191.493, 1090 188.279 C 1095.903 184.992, 1100.500 181.791, 1100.500 180.967 C 1100.500 179.116, 1094.109 177.475, 1079.199 175.498 C 1058.320 172.730, 1057.611 172.851, 1041.256 181.977 M 1544.369 205.598 C 1534.242 207.662, 1531.944 208.468, 1532.212 209.861 C 1532.835 213.095, 1555.614 222, 1563.262 222 C 1568.416 222, 1574.575 219.065, 1578.998 214.502 C 1582.089 211.313, 1582.263 210.835, 1580.851 209.422 C 1579.781 208.352, 1576.032 207.587, 1568.896 206.982 C 1557.072 205.980, 1545.655 205.336, 1544.369 205.598 M 1504.760 214.502 C 1498.303 215.204, 1492.340 216.039, 1491.510 216.358 C 1488.401 217.551, 1490.038 221.685, 1497.137 230.569 C 1509.825 246.448, 1520.857 256.584, 1524.616 255.818 C 1526.444 255.445, 1542.896 230.303, 1542.958 227.787 C 1542.999 226.117, 1536.606 221.286, 1526.912 215.662 C 1521.828 212.712, 1521.426 212.691, 1504.760 214.502 M 1768.208 262.017 C 1762.944 263.871, 1758.831 266.062, 1751.696 270.813 C 1745.386 275.016, 1727 303.312, 1727 308.822 C 1727 313.946, 1736.212 320.445, 1747.689 323.419 C 1753.855 325.017, 1760 325.505, 1760 324.397 C 1760 324.065, 1757.981 321.548, 1755.513 318.804 C 1750.696 313.446, 1748.486 307.617, 1749.508 302.965 C 1751.329 294.675, 1764.392 280.421, 1777.074 272.887 L 1784.099 268.713 1781.595 266.099 C 1780.217 264.661, 1777.825 262.737, 1776.279 261.824 C 1773.643 260.267, 1773.144 260.279, 1768.208 262.017 M 927.316 265.316 C 923.661 268.769, 922.887 270.068, 923.442 271.816 C 924.671 275.690, 930.027 278.806, 937.521 280.007 C 945.484 281.283, 979.506 280.446, 984.733 278.846 C 987.796 277.908, 992 273.439, 992 271.121 C 992 270.533, 990.543 269.298, 988.762 268.377 C 985.929 266.912, 983.145 266.781, 966.512 267.332 C 945.661 268.023, 941.116 267.443, 937.084 263.580 C 935.602 262.161, 933.826 261, 933.137 261 C 932.448 261, 929.828 262.942, 927.316 265.316 M 910.500 287.919 C 905.737 289.084, 903.135 290.838, 901.510 293.980 C 899.516 297.837, 899.482 306.864, 901.460 307.623 C 903.910 308.563, 918.894 299.909, 923.127 295.109 C 925.257 292.694, 927 290.371, 927 289.947 C 927 289.261, 924.865 288.794, 916 287.539 C 914.625 287.344, 912.150 287.515, 910.500 287.919 M 942.588 293.209 C 940.436 294.469, 937.128 297.750, 935.237 300.500 C 930.517 307.363, 930.955 312.473, 937.028 321.429 C 943.650 331.194, 944.453 331.442, 969.604 331.496 C 993.983 331.547, 991.088 330.574, 1007.619 344.279 C 1018.400 353.218, 1021.643 357.717, 1020.228 361.775 C 1018.721 366.098, 1010.119 378.876, 1007.607 380.522 C 1006.355 381.342, 1002.071 382.423, 998.087 382.923 C 989.606 383.988, 987 385.805, 987 390.655 L 987 394 997.550 394 C 1008.866 394, 1011.221 394.698, 1018.081 400.087 C 1023.429 404.288, 1035.804 410.712, 1043.765 413.420 L 1050.804 415.814 1053.339 413.157 C 1056.034 410.333, 1060.974 400.528, 1060.990 397.972 C 1060.996 397.132, 1058.308 393.082, 1055.017 388.972 C 1050.564 383.412, 1049.029 380.689, 1049.017 378.332 C 1048.974 370.201, 1051.245 370.149, 1059.515 378.090 C 1064.507 382.884, 1066.302 384.039, 1067.945 383.518 C 1070.452 382.722, 1079.021 374.198, 1080.964 370.567 C 1082.248 368.168, 1082.141 367.756, 1079.509 365.009 C 1076.581 361.954, 1066.750 355.105, 1059.241 350.891 C 1054.666 348.323, 1053.493 345.910, 1052.313 336.633 L 1051.694 331.765 1030.027 317.383 L 1008.360 303 998.270 303 L 988.180 303 983.340 299.196 C 976.152 293.545, 976.176 293.555, 967 292.812 C 962.325 292.434, 955.800 291.853, 952.500 291.521 C 947.380 291.006, 945.926 291.253, 942.588 293.209 M 1821.710 311.048 C 1820.829 312.397, 1818.945 316.047, 1817.522 319.160 L 1814.936 324.820 1818.846 332.660 C 1823.127 341.244, 1825.509 347.825, 1824.647 348.687 C 1824.343 348.991, 1818.891 346.926, 1812.532 344.099 C 1806.173 341.272, 1798.654 338.046, 1795.822 336.930 C 1789.679 334.508, 1778.964 331.904, 1777.885 332.571 C 1777.463 332.832, 1777.982 334.947, 1779.037 337.273 C 1780.093 339.598, 1780.966 342.512, 1780.978 343.750 C 1781.004 346.419, 1782.137 346.297, 1759.500 346.065 C 1736.370 345.827, 1732.297 346.986, 1712.447 359.449 C 1707.537 362.532, 1702.840 364.928, 1702.010 364.774 C 1701.117 364.608, 1699.468 361.429, 1697.974 356.997 C 1695.547 349.791, 1695.283 349.442, 1691.179 348.015 C 1685.652 346.093, 1684.693 347.321, 1685.719 355 C 1686.124 358.025, 1686.465 362.491, 1686.477 364.926 C 1686.500 369.292, 1686.420 369.397, 1680.500 372.796 C 1671.809 377.786, 1662.552 383.726, 1654.101 389.737 C 1650.031 392.632, 1645.698 395, 1644.472 395 C 1643.012 395, 1640.014 392.638, 1635.786 388.156 C 1628.964 380.924, 1625 374.136, 1625 369.684 C 1625 366.328, 1627.203 366.185, 1636.126 368.962 C 1644.470 371.559, 1656.237 373.408, 1659.388 372.617 C 1662.088 371.940, 1668 364.288, 1668 361.471 C 1668 357.220, 1659.204 352.483, 1619 335.086 C 1612.675 332.349, 1606.600 329.261, 1605.500 328.222 C 1601.790 324.721, 1589.789 320.743, 1584.384 321.223 C 1576.640 321.910, 1548.369 330.681, 1538.468 335.467 L 1529.435 339.833 1517.501 357.166 C 1494.285 390.887, 1492.603 392.788, 1476.047 404.009 C 1460.185 414.760, 1460.483 414.358, 1460.578 424.863 C 1460.622 429.614, 1461.468 436.805, 1462.459 440.844 C 1463.989 447.076, 1464.734 448.477, 1467.381 450.091 C 1471.969 452.888, 1473.818 452.519, 1483.074 446.956 C 1494.904 439.845, 1494.451 439.484, 1504.451 464 C 1507.031 470.325, 1509.447 475.805, 1509.821 476.178 C 1510.194 476.550, 1513.571 475.425, 1517.323 473.678 L 1524.147 470.500 1528.605 459.090 C 1531.056 452.814, 1534.398 445.863, 1536.031 443.643 C 1539.870 438.423, 1539.773 435.621, 1535.526 428.954 C 1531.813 423.126, 1530.908 416.985, 1533.127 412.684 C 1533.747 411.483, 1538.021 406.622, 1542.624 401.882 C 1547.977 396.370, 1551.879 391.325, 1553.451 387.882 C 1558.083 377.741, 1561.232 375.527, 1568.943 376.989 C 1580.071 379.100, 1580.549 381.504, 1571.697 390.847 C 1558.993 404.256, 1557 407.227, 1557 412.752 C 1557 415.488, 1557.450 420.151, 1558.001 423.114 C 1559.738 432.466, 1564.476 434.256, 1580.586 431.649 C 1594.094 429.462, 1599.244 429.507, 1601.345 431.829 C 1602.255 432.835, 1603 434.330, 1603 435.151 C 1603 437.695, 1595.086 440.720, 1586.720 441.372 C 1582.441 441.706, 1577.555 442.696, 1575.861 443.572 C 1573.123 444.988, 1572.855 445.514, 1573.435 448.332 C 1573.793 450.074, 1574.363 454.379, 1574.702 457.898 L 1575.317 464.296 1572.408 463.517 C 1563.959 461.251, 1561.520 461.116, 1559.801 462.818 C 1558.839 463.771, 1557.353 468.339, 1556.374 473.356 C 1555.424 478.226, 1554.018 482.839, 1553.252 483.606 C 1552.385 484.472, 1549.698 485, 1546.150 485 C 1543.011 485, 1535.280 486.342, 1528.971 487.983 C 1515.831 491.399, 1512.688 491.591, 1504.550 489.471 C 1491.271 486.012, 1488.468 482.991, 1491.257 475.139 C 1492.810 470.766, 1492.808 470.138, 1491.217 465.481 C 1490.281 462.741, 1489.414 460.327, 1489.290 460.115 C 1488.732 459.165, 1482.739 462.516, 1480.966 464.770 C 1478.651 467.713, 1478.364 474.816, 1480.164 484.585 C 1481.621 492.494, 1481.010 493.348, 1472.733 494.963 L 1466.500 496.179 1449.877 512.998 C 1433.266 529.805, 1431.009 531.604, 1423.500 534.019 C 1421.300 534.727, 1418.939 536.099, 1418.253 537.068 C 1417.347 538.347, 1414.965 539.020, 1409.538 539.529 C 1405.431 539.914, 1401.284 540.803, 1400.323 541.506 C 1398.090 543.139, 1399.112 544.464, 1407.455 550.760 C 1417.340 558.220, 1420 562.611, 1420 571.473 C 1420 578.752, 1418.390 582.864, 1415.229 583.657 C 1413.815 584.012, 1404.624 584.024, 1394.805 583.684 C 1372 582.893, 1372 582.893, 1372 592.247 C 1372 596.057, 1371.306 604.807, 1370.457 611.692 C 1368.123 630.630, 1369.667 633.423, 1384.484 637.060 C 1392.574 639.045, 1394.343 639.157, 1402.257 638.182 C 1408.445 637.420, 1412.544 636.285, 1416.111 634.343 C 1421.414 631.457, 1423.046 629.050, 1427.870 617 C 1429.545 612.818, 1432.575 608.914, 1440.515 600.708 C 1450.877 590, 1455.323 586.986, 1460.718 587.015 C 1462.248 587.023, 1467.670 585.154, 1472.766 582.862 C 1483.766 577.913, 1484.801 578.109, 1490.831 586.271 C 1494.702 591.511, 1500.904 597.194, 1508 602.001 C 1517.962 608.751, 1522.068 613.835, 1523.951 621.750 C 1525.913 630, 1528.619 628.560, 1531.370 617.803 C 1532.573 613.098, 1533.030 612.489, 1535.415 612.398 C 1536.893 612.342, 1538.623 611.777, 1539.259 611.141 C 1540.760 609.640, 1540.019 608.969, 1527.500 600.483 C 1522 596.755, 1517.188 593.181, 1516.807 592.542 C 1516.426 591.903, 1513.388 588.127, 1510.057 584.149 C 1505.807 579.075, 1504 576.081, 1504 574.114 C 1504 571.094, 1506.663 568, 1509.263 568 C 1512.030 568, 1544.918 594.072, 1546.893 597.830 C 1547.375 598.749, 1548.080 601.801, 1548.460 604.612 C 1548.941 608.177, 1550.624 612.112, 1554.020 617.612 C 1556.699 621.951, 1560.328 628.087, 1562.084 631.250 C 1565.906 638.129, 1567.825 638.525, 1572.632 633.429 C 1576.349 629.487, 1576.657 627.863, 1574.632 622.872 C 1573.880 621.017, 1572.974 617.583, 1572.619 615.240 C 1571.999 611.152, 1572.105 610.923, 1575.237 609.550 C 1577.031 608.763, 1582.550 606.855, 1587.500 605.310 C 1596.314 602.558, 1596.512 602.428, 1597.068 599 C 1597.698 595.116, 1607.044 571.590, 1610.253 565.809 C 1613.064 560.746, 1616.339 559.603, 1625.766 560.393 C 1633.743 561.062, 1634.699 560.880, 1656.752 554.484 C 1660.191 553.487, 1663.315 552.981, 1663.694 553.361 C 1664.678 554.344, 1662.243 560.832, 1659.200 565.336 L 1656.609 569.172 1660.596 572.836 C 1662.789 574.851, 1667.039 578.492, 1670.042 580.927 C 1678.824 588.049, 1686 595.305, 1686 597.061 C 1686 597.957, 1685.052 599.547, 1683.893 600.595 C 1680.790 603.402, 1664.923 603.144, 1651.091 600.062 C 1643.125 598.287, 1639.104 597.889, 1633.959 598.367 C 1626.262 599.083, 1615.659 602.136, 1608.772 605.620 C 1606.171 606.935, 1601.896 608.474, 1599.272 609.038 C 1591.620 610.684, 1591.591 610.729, 1593.014 618.691 C 1594.681 628.020, 1598.684 635.908, 1603.054 638.476 C 1606.219 640.335, 1608.215 640.500, 1627.500 640.498 C 1640.371 640.497, 1648.784 640.884, 1649.235 641.498 C 1651.497 644.583, 1648.300 662.741, 1643.640 673.280 C 1639.876 681.791, 1639.705 681.843, 1616.500 681.516 C 1595.042 681.215, 1594.032 681.035, 1570.694 673.364 C 1565.273 671.582, 1561.849 670.993, 1559.487 671.436 C 1555.671 672.152, 1552 676.098, 1552 679.486 C 1552 680.704, 1551.506 683.119, 1550.902 684.851 C 1549.687 688.337, 1547.257 688.898, 1542.297 686.839 C 1539.439 685.652, 1506.520 670.774, 1497.516 666.599 L 1492.532 664.288 1492.481 652.710 C 1492.415 638.180, 1491.678 637, 1482.663 637 C 1479.348 637, 1472.780 637.441, 1468.068 637.979 C 1463.355 638.517, 1455.125 639.420, 1449.778 639.985 C 1443.076 640.693, 1436.709 642.205, 1429.278 644.852 C 1415.730 649.679, 1412.865 650.205, 1400.338 650.160 L 1390.177 650.124 1379.838 660.573 C 1369.675 670.845, 1364.177 679.202, 1364.049 684.572 C 1364.022 685.711, 1363.270 688.786, 1362.378 691.405 C 1361.013 695.411, 1359.616 697.009, 1353.574 701.477 C 1343.045 709.264, 1339.511 713.752, 1327.163 735.023 C 1318.365 750.179, 1318.354 750.225, 1320.479 763.776 C 1322.631 777.495, 1322.143 785.500, 1318.517 796 C 1315.956 803.417, 1315.945 803.574, 1317.538 810.115 C 1318.876 815.608, 1319.912 817.474, 1323.645 821.115 C 1328.868 826.211, 1336.502 836.338, 1340.517 843.500 C 1342.058 846.250, 1344.935 850.230, 1346.910 852.343 C 1351.067 856.794, 1362.819 866.528, 1368.865 870.529 L 1373.028 873.284 1392.302 871.198 C 1406.325 869.680, 1416.087 867.968, 1428.130 864.915 C 1448.066 859.861, 1449.353 859.966, 1458.414 867.393 C 1464.296 872.214, 1465.600 872.822, 1472.416 873.922 C 1478.287 874.869, 1480.596 875.755, 1482.966 877.968 C 1487.042 881.776, 1487.046 886.696, 1482.985 905.550 C 1482.269 908.877, 1481.977 912.773, 1482.337 914.208 C 1482.697 915.642, 1485.743 920.527, 1489.106 925.062 C 1498.046 937.119, 1499.388 940.191, 1504.036 959.229 C 1509.667 982.295, 1509.653 984.878, 1503.833 997.500 C 1498.537 1008.984, 1497 1014.602, 1497 1022.473 C 1497 1028.077, 1498.356 1032.149, 1505.144 1046.922 C 1509.880 1057.229, 1511.814 1063.948, 1513.894 1077.313 C 1515.939 1090.456, 1516.107 1090.930, 1525.823 1111 C 1529.151 1117.875, 1532.363 1125.525, 1532.960 1128 C 1533.557 1130.475, 1534.598 1134.932, 1535.273 1137.904 C 1536.154 1141.786, 1537.277 1143.886, 1539.259 1145.357 C 1541.871 1147.295, 1542.459 1147.338, 1550.259 1146.153 C 1554.792 1145.464, 1564.125 1144.244, 1571 1143.440 C 1577.875 1142.637, 1585.371 1141.288, 1587.657 1140.443 C 1599.092 1136.214, 1624.501 1105.106, 1627.034 1092.235 C 1628.417 1085.204, 1628.859 1084.614, 1637.129 1078.762 C 1640.776 1076.182, 1644.066 1073.270, 1644.442 1072.291 C 1644.818 1071.311, 1644.814 1063.981, 1644.435 1056.001 L 1643.744 1041.491 1647.952 1037.283 C 1650.266 1034.969, 1655.161 1031.094, 1658.830 1028.673 C 1678.869 1015.448, 1680.540 1012.679, 1679.717 994.049 C 1679.412 987.147, 1677.751 973.035, 1676.024 962.688 C 1673.113 945.238, 1672.988 943.528, 1674.297 939.062 C 1676.889 930.220, 1686.300 917.918, 1707.353 895.849 C 1729.654 872.472, 1732.515 868.898, 1737.653 858 C 1749.084 833.753, 1752.270 824.870, 1750.256 822.856 C 1749.571 822.171, 1745.718 822.833, 1738.371 824.900 C 1723.702 829.027, 1708.515 832.194, 1705.228 831.813 C 1703.065 831.562, 1701.333 829.677, 1696.469 822.279 C 1693.135 817.208, 1687.728 810.047, 1684.453 806.367 C 1674.266 794.917, 1670.202 788.863, 1665.412 778 C 1662.865 772.225, 1657.052 759.175, 1652.494 749 C 1630.956 700.920, 1631.771 703, 1634.465 703 C 1637.656 703, 1645.601 706.301, 1647.318 708.340 C 1651.458 713.256, 1658.252 724.408, 1666 739 C 1670.527 747.525, 1678.169 761.025, 1682.983 769 C 1694.510 788.093, 1695.655 790.473, 1697.446 799.063 C 1699.185 807.402, 1702.997 814, 1706.076 814 C 1710.144 814, 1718.847 810.548, 1737.671 801.469 C 1761.485 789.983, 1777.979 780.139, 1784.500 773.520 C 1787.250 770.729, 1792.144 763.809, 1795.376 758.142 C 1802.472 745.702, 1802.455 745.628, 1790.495 736.939 C 1786.065 733.720, 1781.428 729.717, 1780.190 728.043 C 1777.459 724.350, 1776.061 724.242, 1773.010 727.490 C 1770.226 730.453, 1761.273 734, 1756.579 734 C 1753.979 734, 1752.480 733.164, 1749.857 730.250 C 1738.795 717.963, 1727.794 700.161, 1727.614 694.258 C 1727.507 690.765, 1727.736 690.461, 1731.113 689.617 C 1736.069 688.379, 1739.793 689.527, 1742.887 693.250 C 1750.059 701.877, 1757.705 709.163, 1761.534 711.016 C 1765.970 713.164, 1771.783 713.664, 1778.340 712.463 C 1781.879 711.815, 1782.506 712.074, 1786.340 715.763 C 1788.628 717.965, 1791.400 720.218, 1792.500 720.770 C 1797.102 723.080, 1811.522 725.170, 1826.500 725.699 C 1835.300 726.010, 1843.444 726.767, 1844.597 727.382 C 1845.750 727.997, 1850.801 731.875, 1855.821 736 C 1863.928 742.661, 1864.899 743.806, 1864.502 746.237 C 1864.151 748.387, 1864.897 749.859, 1867.982 753.102 C 1872.112 757.443, 1872.835 757.574, 1881.141 755.476 C 1883.489 754.883, 1883.895 755.180, 1884.804 758.154 C 1885.367 759.994, 1886.118 765.082, 1886.474 769.461 C 1886.830 773.839, 1887.715 779.914, 1888.441 782.961 C 1890.081 789.847, 1900.081 814.930, 1906.890 829.239 C 1909.700 835.145, 1912.002 840.320, 1912.004 840.739 C 1912.006 841.157, 1912.906 842.974, 1914.004 844.775 C 1915.931 847.935, 1916.098 848, 1918.751 846.604 C 1920.263 845.808, 1923.658 842.948, 1926.296 840.247 C 1932.120 834.286, 1933.285 830.496, 1935.683 809.727 L 1937.388 794.954 1943.990 788.727 C 1947.621 785.302, 1957.843 775.849, 1966.705 767.719 L 1982.818 752.939 1983.552 743.219 C 1984.432 731.574, 1983.501 701.460, 1981.474 676 C 1971.976 556.685, 1929.047 444.201, 1856.677 349 C 1845.342 334.090, 1835.686 322.233, 1827.805 313.548 L 1823.311 308.596 1821.710 311.048 M 896.743 315.358 C 892.323 317.877, 889.382 324.159, 890.351 329.007 C 890.686 330.681, 892.769 334.715, 894.980 337.971 C 897.191 341.226, 899 344.267, 899 344.726 C 899 345.186, 896.315 348.220, 893.032 351.468 L 887.065 357.373 872.782 356.173 C 864.927 355.513, 855.800 354.996, 852.500 355.023 C 846.572 355.072, 846.467 355.124, 843.738 359.287 C 842.219 361.604, 837.543 368.450, 833.345 374.500 C 809.397 409.020, 788.068 448.890, 769.953 493 C 763.104 509.674, 754.990 533.001, 750.124 550 C 738.191 591.687, 731.730 626.623, 726.483 677.841 L 724.912 693.182 727.956 698.576 C 729.630 701.543, 731 705.032, 731 706.330 C 731 707.628, 731.939 709.540, 733.087 710.579 C 734.235 711.618, 738.480 717.425, 742.519 723.484 C 749.873 734.513, 756.391 741.942, 757.629 740.704 C 758.611 739.722, 755.621 732.513, 745.930 712.500 C 735.410 690.772, 734 687.450, 734 684.378 C 734 681.815, 735.826 681.301, 738.964 682.980 C 739.971 683.520, 745.229 690.549, 750.648 698.601 C 756.066 706.653, 763.522 716.980, 767.215 721.549 C 773.596 729.444, 782.381 741.961, 784.856 746.684 C 785.485 747.886, 786 751.841, 786 755.474 C 786 766.057, 788.475 769.650, 800 775.802 C 802.475 777.124, 808.550 780.382, 813.500 783.044 C 818.450 785.706, 826.305 789.282, 830.956 790.992 C 838.622 793.811, 840.116 794.042, 846.956 793.463 L 854.500 792.824 861 797.062 C 870.444 803.220, 874.362 805.226, 885.247 809.476 C 897.117 814.112, 900.707 817.173, 906.304 827.432 C 908.684 831.795, 911.489 835.845, 912.537 836.432 C 913.585 837.020, 917.755 839.676, 921.803 842.335 C 925.850 844.995, 931.038 848.022, 933.331 849.063 C 937.613 851.007, 942 851.597, 942 850.229 C 942 849.805, 943.994 848.369, 946.432 847.037 C 952.365 843.796, 954.846 844.942, 958.625 852.667 C 961.062 857.648, 961.513 859.901, 961.786 868.487 L 962.106 878.500 957.803 884.062 C 943.592 902.433, 941.046 905.981, 940.535 908.125 C 940.223 909.431, 939.577 917.025, 939.099 925 C 938.104 941.609, 937.376 939.149, 948.361 956.321 C 952.520 962.823, 957.028 970.473, 958.380 973.321 C 972.980 1004.082, 972.440 1003.182, 979.311 1008.198 C 982.851 1010.782, 990.191 1015.890, 995.623 1019.550 C 1010.071 1029.285, 1009.436 1027.901, 1009.840 1050.500 C 1010.336 1078.213, 1008.210 1134.731, 1005.947 1154 C 1003.632 1173.707, 1003.532 1183.542, 1005.441 1203.500 C 1006.230 1211.750, 1007.434 1227.855, 1008.116 1239.289 L 1009.357 1260.077 1012.338 1263.289 C 1015.652 1266.858, 1061.325 1296.068, 1061.801 1294.921 C 1061.966 1294.523, 1060.565 1291.790, 1058.687 1288.848 C 1056.810 1285.907, 1054.038 1281.055, 1052.527 1278.067 C 1048.948 1270.987, 1049.435 1266.431, 1054.884 1255.989 C 1057.148 1251.651, 1059 1247.448, 1059 1246.650 C 1059 1245.852, 1057.879 1242.791, 1056.510 1239.849 C 1055.140 1236.907, 1054.015 1233.357, 1054.010 1231.961 C 1053.999 1229.182, 1063.567 1204.066, 1070.372 1189.011 C 1075.109 1178.531, 1073.903 1179.464, 1088.500 1174.980 C 1096.079 1172.652, 1101.491 1169.179, 1102.502 1165.994 C 1102.889 1164.775, 1102.141 1161.878, 1100.599 1158.617 C 1097.804 1152.710, 1095.313 1144.353, 1096.110 1143.557 C 1096.389 1143.278, 1101.002 1143.749, 1106.361 1144.604 C 1113.831 1145.796, 1116.433 1145.886, 1117.512 1144.990 C 1119.999 1142.926, 1142.525 1108.727, 1145.828 1102 C 1147.583 1098.425, 1149.523 1092.575, 1150.139 1089 C 1152.248 1076.760, 1154.267 1074.852, 1175.215 1065.298 C 1191.972 1057.656, 1194.421 1056.060, 1196.907 1051.166 C 1200.918 1043.269, 1205.284 1023.690, 1206.879 1006.447 C 1207.390 1000.917, 1208.480 994.788, 1209.300 992.825 C 1210.120 990.863, 1215.082 982.888, 1220.327 975.102 C 1231.134 959.060, 1232.525 954.623, 1229.868 944.682 L 1228.486 939.515 1213.812 930.918 C 1201.597 923.763, 1197.407 921.861, 1188.819 919.572 C 1178.615 916.853, 1155.603 908.453, 1142.982 902.839 L 1136.463 899.939 1134.306 893.092 C 1131.718 884.880, 1125.663 872.348, 1122.813 869.306 C 1119.724 866.010, 1115.309 864.245, 1101.620 860.835 C 1087.836 857.401, 1090.508 859.104, 1067.671 839.196 C 1062.816 834.963, 1057.866 831.207, 1056.671 830.850 C 1055.477 830.492, 1051.350 830.147, 1047.500 830.082 C 1038.917 829.939, 1031.496 828.390, 1014 823.090 C 1006.575 820.841, 999.634 819, 998.576 819 C 996.580 819, 982.460 825.896, 977.897 829.099 C 976.466 830.104, 973.541 833.623, 971.397 836.920 C 969.254 840.216, 966.878 842.933, 966.118 842.957 C 965.358 842.981, 963.116 841.999, 961.136 840.775 C 957.440 838.491, 951.929 838.061, 939.462 839.086 C 933.515 839.575, 930.102 837.373, 925.381 830.001 C 922.211 825.051, 921.980 822.430, 923.355 807 C 924.034 799.369, 923.910 798.248, 922.138 796.033 C 920.266 793.694, 919.456 793.533, 906.566 792.933 C 899.087 792.586, 892.674 792.008, 892.315 791.649 C 891.957 791.290, 893.534 785.035, 895.819 777.748 C 904.068 751.456, 903.993 750.721, 893.165 751.683 C 889.499 752.009, 885.708 752.681, 884.741 753.177 C 883.774 753.674, 881.186 757.651, 878.992 762.016 C 876.797 766.382, 873.988 770.615, 872.751 771.424 C 871.458 772.269, 866.608 773.188, 861.359 773.583 L 852.218 774.271 847.843 769.885 C 841.424 763.450, 838.398 757.605, 836.916 748.783 C 835.796 742.106, 835.842 739.814, 837.264 731.783 C 838.167 726.677, 839.194 720.267, 839.546 717.537 C 840.760 708.125, 842.614 705.212, 850.786 699.877 L 858.257 695 874.396 695 C 890.332 695, 890.586 694.966, 894.518 692.272 C 902.324 686.924, 921.234 688.459, 927.447 694.945 C 929.153 696.725, 930.351 699.569, 931.072 703.552 C 932.968 714.013, 939.526 725, 943.875 725 C 946.593 725, 948.315 719.416, 947.487 713.284 C 947.132 710.653, 945.748 704.028, 944.411 698.562 C 941.806 687.915, 941.926 684.130, 945.060 678 C 946.924 674.353, 956.699 664.491, 968.229 654.625 C 973.610 650.022, 975.169 648.028, 976.005 644.684 C 980.965 624.858, 990.717 610.206, 1002.738 604.520 C 1009.397 601.370, 1009.964 600.708, 1009.985 596.066 C 1010.004 591.730, 1015.361 586.353, 1029.206 576.775 C 1043.615 566.807, 1046.538 566.723, 1041.829 576.415 C 1040.025 580.128, 1039.877 581.147, 1040.952 582.442 C 1041.663 583.299, 1043.427 583.993, 1044.872 583.985 C 1047.492 583.970, 1073.155 569.222, 1073.382 567.601 C 1073.447 567.140, 1070.058 565.547, 1065.851 564.062 C 1054.772 560.152, 1053.319 558.958, 1051.472 552.244 C 1048.112 540.029, 1047.812 539.532, 1043.594 539.182 C 1039.532 538.846, 1033.573 541.924, 1022.293 550.186 C 1013.615 556.542, 1012.471 554.723, 1019.509 545.758 C 1025.475 538.158, 1034.157 531.450, 1039.898 530.003 C 1042.429 529.366, 1051.874 528.469, 1060.888 528.010 L 1077.275 527.176 1090.388 520.452 C 1097.599 516.754, 1104.051 513.294, 1104.724 512.763 C 1106.444 511.408, 1107.349 505.676, 1106.532 501.319 C 1105.794 497.383, 1100.056 491.206, 1092.500 486.213 C 1079.838 477.846, 1075.447 472.511, 1072.092 461.415 C 1069.912 454.202, 1060.564 436, 1059.040 436 C 1058.558 436, 1057.156 437.687, 1055.925 439.750 C 1049.973 449.719, 1043.351 453.325, 1036.229 450.475 C 1031.290 448.499, 1028.157 443.184, 1026.966 434.761 C 1025.983 427.803, 1026.394 428.245, 1012.700 419.426 L 1003.900 413.759 994.414 413.630 C 987.429 413.534, 984.709 413.855, 984.096 414.847 C 981.069 419.738, 979.627 452.191, 981.951 463.110 C 983.114 468.574, 983.134 470.263, 982.064 472.847 C 980.846 475.785, 975.652 481.383, 970 485.846 C 967.625 487.722, 967.471 488.474, 966.916 500.898 C 966.283 515.061, 965.162 518, 960.392 518 C 953.009 518, 948.563 510.741, 947.073 496.253 C 946.550 491.168, 945.865 486.590, 945.550 486.081 C 945.236 485.572, 942.067 484.187, 938.508 483.003 C 928.950 479.822, 892.508 460.919, 888.322 456.971 C 884.462 453.330, 881.058 446.936, 881.022 443.261 C 881.010 442.029, 882.148 438.153, 883.552 434.647 C 887.714 424.250, 905.199 405.630, 919.121 396.768 C 922.213 394.800, 926.887 390.897, 929.508 388.095 C 935.543 381.643, 937.441 381.418, 936.653 387.250 C 936.338 389.587, 935.785 394.087, 935.425 397.250 L 934.770 403 939.755 403 C 942.496 403, 947.557 402.100, 951 401 C 954.443 399.900, 959.200 399, 961.571 399 C 963.942 399, 966.183 398.513, 966.550 397.919 C 967.760 395.961, 961.763 391.063, 952.558 386.492 C 941.562 381.031, 939.723 379.675, 940.170 377.356 C 940.439 375.960, 942.095 375.324, 947.643 374.490 C 955.675 373.282, 961.935 369.800, 964.929 364.876 C 966.963 361.532, 968.562 348.837, 967.538 344.173 C 967.075 342.065, 965.735 340.723, 962.461 339.087 C 954.786 335.254, 953.675 335.944, 946.622 348.918 C 943.209 355.197, 939.680 360.800, 938.780 361.367 C 936.766 362.638, 934.553 360.256, 929.432 351.303 C 927.153 347.319, 924.200 343.895, 921.161 341.711 C 917.410 339.016, 915.884 336.993, 913.769 331.908 C 912.304 328.383, 910.608 323.567, 910.002 321.204 C 909.200 318.083, 908.024 316.375, 905.699 314.958 C 901.858 312.616, 901.528 312.631, 896.743 315.358 M 1345 370.676 C 1343.625 370.898, 1338.619 371.962, 1333.876 373.040 C 1322.863 375.543, 1316.964 375.532, 1312 373 C 1306.988 370.443, 1305.476 370.483, 1303.557 373.223 C 1301.362 376.356, 1301.647 379.472, 1304.860 387.500 C 1308.048 395.463, 1310.046 396.925, 1321.919 399.979 C 1328.297 401.620, 1328.988 401.622, 1334.091 400.023 C 1340.854 397.903, 1353.762 391.463, 1356.750 388.718 C 1357.987 387.582, 1359 385.812, 1359 384.786 C 1359 380.333, 1351.509 369.778, 1348.604 370.136 C 1347.997 370.211, 1346.375 370.454, 1345 370.676 M 1401.426 446.417 C 1397.137 448.285, 1393.999 455.793, 1394.002 464.185 C 1394.003 471.336, 1395.079 473.797, 1402.250 483.062 C 1407.925 490.394, 1408.237 493.200, 1403.901 497.947 C 1401.545 500.527, 1398.132 507.944, 1398.011 510.750 C 1398.005 510.887, 1399.125 511, 1400.500 511 C 1404.235 511, 1403.691 514.080, 1399 519.500 C 1392.809 526.653, 1393.551 527.308, 1404.145 524.038 C 1407.640 522.959, 1413.875 521.369, 1418 520.504 C 1432.606 517.443, 1432.972 517.275, 1435.053 512.691 C 1437.866 506.496, 1437.589 502.812, 1434.118 500.246 C 1432.533 499.074, 1429.537 495.052, 1427.460 491.307 C 1425.383 487.563, 1421.449 480.992, 1418.716 476.704 C 1414.143 469.527, 1413.804 468.576, 1414.443 464.704 C 1415.775 456.633, 1415.860 456.850, 1410.772 455.348 L 1406.045 453.953 1406.658 449.476 C 1407.344 444.472, 1406.724 444.110, 1401.426 446.417 M 1374.147 484.250 C 1367.783 489.739, 1366.182 492.461, 1367.798 495.048 C 1369.438 497.674, 1369.308 503.018, 1367.500 507.346 C 1366.675 509.320, 1366 511.400, 1366 511.968 C 1366 513.811, 1370.338 513.076, 1378.254 509.892 C 1385.468 506.989, 1386.146 506.459, 1388.004 502.259 C 1389.473 498.938, 1390 495.567, 1390 489.498 L 1390 481.250 1386.875 480.625 C 1380.984 479.447, 1379.090 479.986, 1374.147 484.250 M 1097.075 526.635 C 1091.051 535.047, 1084.298 548.698, 1085.543 549.943 C 1086.109 550.509, 1090.595 551.673, 1095.514 552.530 C 1100.433 553.388, 1108.177 554.897, 1112.724 555.883 C 1117.271 556.869, 1121.218 557.448, 1121.496 557.171 C 1122.362 556.305, 1122.037 548.672, 1120.970 544.830 C 1119.455 539.378, 1117.065 537.058, 1111.500 535.638 L 1106.500 534.362 1106.319 528.931 C 1106.220 525.944, 1106.107 522.938, 1106.069 522.250 C 1106.031 521.563, 1104.900 521, 1103.555 521 C 1101.728 521, 1100.090 522.425, 1097.075 526.635 M 926.750 742.107 C 924.138 743.288, 922 744.648, 922 745.127 C 922 745.607, 924.362 746.004, 927.250 746.009 C 933.387 746.019, 949.309 751.213, 955.711 755.293 C 958.027 756.769, 960.925 759.332, 962.149 760.988 C 964.243 763.820, 964.780 764, 971.123 764 C 974.834 764, 979.137 763.514, 980.685 762.920 L 983.500 761.839 980.782 759.657 C 979.287 758.457, 970.658 753.673, 961.607 749.025 C 946.346 741.188, 944.655 740.552, 938.325 740.266 C 933.011 740.026, 930.449 740.434, 926.750 742.107 M 992.750 764.564 C 992.337 764.987, 992 766.820, 992 768.638 C 992 771.513, 991.586 772.050, 988.818 772.767 C 977.250 775.765, 995.890 778.513, 1010.566 775.973 C 1023.707 773.700, 1023.900 773.208, 1013.507 768.472 C 1006.149 765.118, 994.371 762.901, 992.750 764.564 M 1731.911 995.271 C 1724.656 1005.662, 1719.059 1011.032, 1712.321 1014.068 C 1703.504 1018.041, 1702.603 1019.823, 1702.546 1033.385 C 1702.502 1044.028, 1702.356 1044.774, 1699.123 1050.953 C 1695.873 1057.163, 1695.771 1057.698, 1696.396 1065.198 C 1697.486 1078.264, 1700.424 1083, 1707.440 1083 C 1712.995 1083, 1718.057 1080.094, 1720.679 1075.401 C 1721.877 1073.255, 1727.390 1058.015, 1732.929 1041.534 C 1744.252 1007.843, 1744.816 1004.443, 1740.593 995.373 C 1739.280 992.552, 1737.768 989.975, 1737.233 989.644 C 1736.698 989.313, 1734.303 991.846, 1731.911 995.271" stroke="none" fill="#73d7d2" fill-rule="evenodd"/><path d="M 1 738.500 L 1 1476 1354 1476 L 2707 1476 2707 738.500 L 2707 1 1354 1 L 1 1 1 738.500 M 1318.500 65.029 C 1248.346 69.175, 1190.176 81.208, 1123 105.472 C 1101.118 113.375, 1093.170 116.676, 1070 127.484 C 1053.991 134.952, 1040.714 141.685, 1029.500 148.023 C 972.752 180.095, 924.236 217.467, 877.476 265.129 C 825.933 317.665, 786.858 373.058, 754.472 439.500 C 728.787 492.193, 708.066 557.310, 698.148 616.500 C 680.777 720.171, 686.219 817.023, 715.144 919 C 735.294 990.040, 773.688 1067.806, 818.823 1129 C 829.644 1143.671, 852.539 1171.703, 864.559 1185 C 879.612 1201.651, 913.479 1235.036, 925.221 1244.800 C 930.018 1248.788, 936.543 1254.328, 939.721 1257.110 C 942.900 1259.893, 951.575 1266.697, 959 1272.231 C 966.425 1277.765, 974.075 1283.501, 976 1284.977 C 977.925 1286.453, 986.250 1292.161, 994.500 1297.661 C 1037.303 1326.196, 1085.014 1350.836, 1132 1368.672 C 1189.594 1390.534, 1250.563 1403.880, 1311.500 1407.964 C 1342.991 1410.074, 1399.757 1408.824, 1427 1405.421 C 1506.001 1395.551, 1577.064 1373.534, 1649 1336.640 C 1657.525 1332.268, 1667.650 1326.806, 1671.500 1324.503 C 1675.350 1322.200, 1683 1317.705, 1688.500 1314.514 C 1700.868 1307.340, 1731.931 1286.331, 1746 1275.626 C 1801.573 1233.342, 1852.248 1181.482, 1892.695 1125.500 C 1931.337 1072.017, 1962.156 1012.452, 1984.276 948.500 C 1997.416 910.509, 2009.603 858.295, 2014.501 819 C 2020.731 769.029, 2021.599 714.341, 2016.921 666.500 C 2013.960 636.205, 2005.373 585.649, 2000.021 567 C 1999.468 565.075, 1996.553 554.725, 1993.543 544 C 1969.046 456.726, 1925.064 374.174, 1864.350 301.515 C 1830.177 260.618, 1788.344 221.926, 1741.500 187.888 C 1691.669 151.680, 1630.827 120.304, 1571.500 100.218 C 1520.254 82.869, 1467.921 71.687, 1413.500 66.459 C 1394.291 64.614, 1339.487 63.789, 1318.500 65.029" stroke="none" fill="#ffffff" fill-rule="evenodd"/></svg>